<svg xmlns="http://www.w3.org/2000/svg" viewBox="0 0 24 24">
    <path style="text-indent:0;text-align:start;line-height:normal;text-transform:none;block-progression:tb;-inkscape-font-specification:Bitstream Vera Sans" d="M 6 2 C 4.897 2 4 2.897 4 4 L 4 20 C 4 21.103 4.897 22 6 22 L 18 22 C 19.103 22 20 21.103 20 20 L 20 15.25 L 18 16.75 L 18 20 L 6 20 L 6 4 L 18 4 L 18 7.25 L 20 8.75 L 20 4 C 20 2.897 19.103 2 18 2 L 6 2 z M 16 8.25 L 16 11 L 11 11 L 11 13 L 16 13 L 16 15.75 L 21 12 L 16 8.25 z" overflow="visible" font-family="Bitstream Vera Sans"></path>
</svg>